<svg xmlns="http://www.w3.org/2000/svg" width="15.452" height="11.487" viewBox="0 0 15.452 11.487">
  <path id="vision" d="M15.394,5.97C14.1,3.093,11.163.5,7.726.5,3.859.5,1.079,3.7.059,5.97a.672.672,0,0,0,0,.548c1.292,2.876,4.23,5.47,7.668,5.47,3.867,0,6.647-3.2,7.668-5.47a.672.672,0,0,0,0-.548ZM7.726,10.711c-2.781,0-5.086-1.938-6.439-4.467C2.634,3.724,4.939,1.776,7.726,1.776s5.086,1.937,6.439,4.467C12.818,8.763,10.514,10.711,7.726,10.711Zm0-7.658A3.112,3.112,0,0,0,4.708,6.244,3.112,3.112,0,0,0,7.726,9.435a3.112,3.112,0,0,0,3.018-3.191A3.112,3.112,0,0,0,7.726,3.053Zm0,5.105A1.867,1.867,0,0,1,5.916,6.244,1.867,1.867,0,0,1,7.726,4.329,1.867,1.867,0,0,1,9.537,6.244,1.867,1.867,0,0,1,7.726,8.158Zm0,0"
   transform="translate(0 -0.5)" fill="#becec9" opacity="0.8"/>
</svg>