<?xml version="1.0" encoding="utf-8"?>
<!-- Generator: Adobe Illustrator 18.1.1, SVG Export Plug-In . SVG Version: 6.00 Build 0)  -->
<svg version="1.1" id="Capa_1" xmlns="http://www.w3.org/2000/svg" xmlns:xlink="http://www.w3.org/1999/xlink" x="0px" y="0px"
	 viewBox="0 0 2451 1837" enable-background="new 0 0 2451 1837" xml:space="preserve">
<g>
	<g>
		<g>
			<polygon fill="#F89A30" points="838.3,684 838.3,672.1 755.7,691.6 755.7,703.4 			"/>
			<path fill="#F89A30" d="M755.2,637h0.5v54.6L771,688v-51h0.5c0.6,0,1.1-0.5,1.1-1.1c0-0.6-0.5-1.1-1.1-1.1c0-4.8-2.4-5.8-4.6-7
				c-2.3-1.1-3.6-3.8-3.6-3.8s-1.2,2.6-3.5,3.8c-2.3,1.1-4.7,2.2-4.7,7c-0.6,0-1.1,0.5-1.1,1.1C754.1,636.5,754.6,637,755.2,637z"/>
			<path fill="#F89A30" d="M838.6,616.1h0.5v57.8l7.7-1.7V684h136.6v-11.8h-14.6v-23.7c0-9.6,2.8-12.9,5-15.9c3.6-4.9,5-8.1,5-8.1
				v-13.6H992v-10.2h-9.8c0-32.7-16.4-39.7-31.9-47.5c-15.5-7.8-24.1-25.7-24.1-25.7s-8.6,17.9-24.1,25.7
				c-15.6,7.8-31.9,14.8-31.9,47.5h-9.8v10.2h13.3v13.6c0,0,1.5,3.3,5.4,8.1c2.3,2.9,5.4,6.3,5.4,15.9v23.7h-30v-56h0.5
				c0.6,0,1.1-0.5,1.1-1.1s-0.5-1.1-1.1-1.1c0-4.8-2.4-5.8-4.7-6.9c-2.3-1.1-3.5-3.8-3.5-3.8s-1.2,2.6-3.5,3.8
				c-2.3,1.1-4.7,2.2-4.7,6.9c-0.6,0-1.1,0.5-1.1,1.1S838,616.1,838.6,616.1z M930.6,672.1v-23.7c0-9.6,4-12.9,7-15.9
				c5.1-4.9,7-8.1,7-8.1s1.9,3.3,7,8.1c3,2.9,7,6.3,7,15.9v23.7H930.6z M892.9,648.4c0-9.6,4-12.9,7-15.9c5.1-4.9,7-8.1,7-8.1
				s1.9,3.3,7,8.1c3,2.9,7,6.3,7,15.9v23.7h-28V648.4z"/>
			<polygon fill="#F89A30" points="1442.9,684 1525.5,703.4 1525.5,691.6 1442.9,672.1 			"/>
			<path fill="#F89A30" d="M1509.6,637h0.5v51l15.3,3.6V637h0.5c0.6,0,1.1-0.5,1.1-1.1c0-0.6-0.5-1.1-1.1-1.1c0-4.8-2.4-5.8-4.7-7
				c-2.3-1.1-3.5-3.8-3.5-3.8s-1.3,2.6-3.5,3.8c-2.3,1.1-4.7,2.2-4.7,7c-0.6,0-1.1,0.5-1.1,1.1C1508.6,636.5,1509,637,1509.6,637z"
				/>
			<path fill="#F89A30" d="M1289.2,600.6v10.2h13.3v13.6c0,0,1.4,3.3,5,8.1c2.2,2.9,5,6.3,5,15.9v23.7h-14.6V684h136.6v-11.7
				l7.7,1.7v-57.8h0.5c0.6,0,1.1-0.5,1.1-1.1s-0.5-1.1-1.1-1.1c0-4.8-2.4-5.8-4.7-6.9c-2.3-1.1-3.5-3.8-3.5-3.8s-1.2,2.6-3.5,3.8
				c-2.3,1.1-4.7,2.2-4.7,6.9c-0.6,0-1.1,0.5-1.1,1.1s0.5,1.1,1.1,1.1h0.5v56h-30v-23.7c0-9.6,3.1-12.9,5.4-15.9
				c3.9-4.9,5.4-8.1,5.4-8.1v-13.6h13.3v-10.2h-9.8c0-32.7-16.3-39.7-31.9-47.5c-15.6-7.8-24.1-25.7-24.1-25.7s-8.6,17.9-24.1,25.7
				c-15.6,7.8-31.9,14.8-31.9,47.5H1289.2z M1322.6,672.1v-23.7c0-9.6,4-12.9,7-15.9c5.1-4.9,7-8.1,7-8.1s1.9,3.3,7,8.1
				c3,2.9,7,6.3,7,15.9v23.7H1322.6z M1360.2,672.1v-23.7c0-9.6,4-12.9,7-15.9c5.1-4.9,7-8.1,7-8.1s1.9,3.3,7,8.1
				c3,2.9,7,6.3,7,15.9v23.7H1360.2z"/>
			<path fill="#F89A30" d="M1886.7,967.2l-6.3-153.8h4.1v-5.7h0.1c2.2,0,4-1.8,4-4c0-2.2-1.8-4-4-4h-4.8l-6-147.5h3.3v5.7h4.4v-5.7
				h-0.6c2.2,0,4-1.8,4-4c0-2.2-1.8-4-4-4h-7.4l-6.6-162.1h2v-5.7h3.8v5.7h4.4v-5.7h-0.2c2.2,0,4-1.8,4-4c0-2.2-1.8-4-4-4h-10.5
				v-6.9h-5.9c0,0,0-19,0-24.2c0-5.2,1.7-7,2.9-8.6c2.1-2.6,2.9-4.4,2.9-4.4v-7.4h10.5c2.2,0,4-1.8,4-4c0-2.2-1.8-4-4-4h-8.6
				c0-17.7-8.9-21.5-17.3-25.7c-8.4-4.2-13.1-13.9-13.1-13.9s-4.6,9.7-13.1,13.9c-8.5,4.2-17.3,8-17.3,25.7h-8.7c-2.2,0-4,1.8-4,4
				c0,2.2,1.8,4,4,4h10.6v7.4c0,0,0.7,1.8,2.7,4.4c1.2,1.6,2.7,3.4,2.7,8.6c0,5.2,0,24.2,0,24.2h-5.4v6.9h-10.6c-2.2,0-4,1.8-4,4
				c0,2.2,1.8,4,4,4h-0.2v5.7h4.4v-5.7h3.8v5.7h1.9l-6.6,162.1h-7.4c-2.2,0-4,1.8-4,4c0,2.2,1.8,4,4,4h-0.1v5.7h4.4v-5.7h2.7
				l-6,147.5h-6.3c-2.2,0-4,1.8-4,4c0,2.2,1.8,4,4,4v5.7h4.4v-5.7h1.6l-6.5,159.5h-11.9h-114.4l-4.8-117h3.1v-4.3h0.1
				c1.7,0,3-1.4,3-3.1c0-1.7-1.4-3-3-3h-3.7l-4.6-112.2h2.5v4.4h3.4v-4.4h-0.5c1.7,0,3-1.3,3-3c0-1.7-1.4-3-3-3h-5.6l-5-123.3h1.5
				v-4.4h2.9v4.4h3.3v-4.4h-0.1c1.7,0,3-1.4,3-3s-1.4-3-3-3h-8v-5.2h-4.4c0,0,0-14.5,0-18.4c0-4,1.2-5.4,2.2-6.5
				c1.6-2,2.2-3.4,2.2-3.4v-5.6h8c1.7,0,3-1.4,3-3c0-1.7-1.4-3-3-3h-6.6c0-13.5-6.7-16.4-13.2-19.6c-6.4-3.2-9.9-10.6-9.9-10.6
				s-3.5,7.4-9.9,10.6c-6.4,3.2-13.2,6.1-13.2,19.6h-6.6c-1.7,0-3,1.4-3,3c0,1.7,1.4,3,3,3h8v5.6c0,0,0.6,1.3,2.1,3.4
				c0.9,1.2,2.1,2.6,2.1,6.5c0,3.9,0,18.4,0,18.4h-4.1v5.2h-8c-1.7,0-3,1.4-3,3s1.4,3,3,3h-0.1v4.4h3.3v-4.4h2.9v4.4h1.5l-5,123.3
				h-5.6c-1.7,0-3,1.4-3,3c0,1.7,1.4,3,3,3h0v4.4h3.4v-4.4h2.1l-4.6,112.2h-4.8c-1.7,0-3.1,1.4-3.1,3c0,1.7,1.4,3.1,3.1,3.1v4.3h3.3
				v-4.3h1.2l-4.9,121.4h-63V714.3l-82.6-19.5v272.4h-8.5V694.9h-136.6v272.4h-6.3V622.4h-14.8V581c0,0-11-13.5-136-13.5
				c-125.1,0-136.1,13.5-136.1,13.5v41.3h-14.8v344.9h-6.4V694.9H846.7v272.4h-8.5V694.9l-82.6,19.5v252.9h-63l-4.9-121.4h1.2v4.3
				h3.3v-4.3c1.7,0,3-1.4,3-3.1c0-1.7-1.4-3-3-3h-4.8l-4.6-112.2h2.1v4.4h3.3v-4.4h0c1.7,0,3-1.3,3-3c0-1.7-1.4-3-3-3h-5.6l-5-123.3
				h1.5v-4.4h2.9v4.4h3.4v-4.4h-0.2c1.7,0,3-1.4,3-3s-1.4-3-3-3h-8v-5.2h-4.1c0,0,0-14.5,0-18.4c0-4,1.2-5.4,2.1-6.5
				c1.5-2,2.1-3.4,2.1-3.4v-5.6h8c1.7,0,3-1.4,3-3c0-1.7-1.4-3-3-3h-6.6c0-13.5-6.7-16.4-13.2-19.6c-6.4-3.2-9.9-10.6-9.9-10.6
				s-3.5,7.4-9.9,10.6c-6.4,3.2-13.2,6.1-13.2,19.6h-6.6c-1.7,0-3,1.4-3,3c0,1.7,1.3,3,3,3h8v5.6c0,0,0.6,1.3,2.2,3.4
				c1,1.2,2.2,2.6,2.2,6.5c0,3.9,0,18.4,0,18.4h-4.5v5.2h-8c-1.7,0-3,1.4-3,3s1.3,3,3,3h-0.2v4.4h3.3v-4.4h2.9v4.4h1.5l-5,123.3
				h-5.6c-1.7,0-3,1.4-3,3c0,1.7,1.3,3,3,3h-0.5v4.4h3.4v-4.4h2.5l-4.6,112.2H620c-1.7,0-3,1.4-3,3c0,1.7,1.4,3.1,3,3.1h0.1v4.3h3.1
				l-4.8,117H504h-11.9l-6.5-159.5h1.6v5.7h4.4v-5.7c2.2,0,4-1.8,4-4c0-2.2-1.8-4-4-4h-6.3l-6-147.5h2.7v5.7h4.4v-5.7h0
				c2.2,0,4-1.8,4-4c0-2.2-1.8-4-4-4h-7.4l-6.6-162.1h2v-5.7h3.8v5.7h4.4v-5.7h-0.2c2.2,0,4-1.8,4-4c0-2.2-1.8-4-4-4h-10.5v-6.9
				h-5.4c0,0,0-19,0-24.2c0-5.2,1.5-7,2.7-8.6c2-2.6,2.7-4.4,2.7-4.4v-7.4h10.5c2.2,0,4-1.8,4-4c0-2.2-1.8-4-4-4h-8.6
				c0-17.7-8.9-21.5-17.3-25.7c-8.4-4.2-13.1-13.9-13.1-13.9s-4.6,9.7-13.1,13.9c-8.5,4.2-17.3,8-17.3,25.7h-8.6c-2.2,0-4,1.8-4,4
				c0,2.2,1.8,4,4,4h10.5v7.4c0,0,0.8,1.8,2.9,4.4c1.3,1.6,2.9,3.4,2.9,8.6c0,5.2,0,24.2,0,24.2h-5.9v6.9h-10.5c-2.2,0-4,1.8-4,4
				c0,2.2,1.8,4,4,4h-0.2v5.7h4.4v-5.7h3.8v5.7h2l-6.6,162.1h-7.4c-2.2,0-4,1.8-4,4c0,2.2,1.8,4,4,4h-0.6v5.7h4.4v-5.7h3.3l-6,147.5
				h-4.8c-2.2,0-4,1.8-4,4c0,2.2,1.8,4,4,4h0.1v5.7h4.1l-6.3,153.8h-14v9v6.1v77.8H504h1273.1h123.6v-77.8v-6.1v-9H1886.7z
				 M1820.3,461.7c0,0,0-19,0-24.2c0-5.2,2.2-7,3.8-8.6c2.7-2.6,3.8-4.4,3.8-4.4s1,1.8,3.8,4.4c1.6,1.6,3.8,3.4,3.8,8.6
				c0,5.2,0,24.2,0,24.2H1820.3z M1840.7,461.7c0,0,0-19,0-24.2c0-5.2,2.2-7,3.8-8.6c2.7-2.6,3.8-4.4,3.8-4.4s1,1.8,3.8,4.4
				c1.7,1.6,3.8,3.4,3.8,8.6c0,5.2,0,24.2,0,24.2H1840.7z M1612.3,582.4c0,0,0-14.5,0-18.4c0-4,1.6-5.4,2.9-6.5
				c2.1-2,2.9-3.4,2.9-3.4s0.8,1.3,2.9,3.4c1.2,1.2,2.9,2.6,2.9,6.5c0,3.9,0,18.4,0,18.4H1612.3z M1627.8,582.4c0,0,0-14.5,0-18.4
				c0-4,1.6-5.4,2.9-6.5c2.1-2,2.9-3.4,2.9-3.4s0.8,1.3,2.9,3.4c1.2,1.2,2.9,2.6,2.9,6.5c0,3.9,0,18.4,0,18.4H1627.8z M641.9,582.4
				c0,0,0-14.5,0-18.4c0-4,1.7-5.4,2.9-6.5c2.1-2,2.9-3.4,2.9-3.4s0.8,1.3,2.9,3.4c1.2,1.2,2.9,2.6,2.9,6.5c0,3.9,0,18.4,0,18.4
				H641.9z M657.4,582.4c0,0,0-14.5,0-18.4c0-4,1.6-5.4,2.9-6.5c2.1-2,2.9-3.4,2.9-3.4s0.8,1.3,2.9,3.4c1.3,1.2,2.9,2.6,2.9,6.5
				c0,3.9,0,18.4,0,18.4H657.4z M425.3,461.7c0,0,0-19,0-24.2c0-5.2,2.2-7,3.8-8.6c2.8-2.6,3.8-4.4,3.8-4.4s1,1.8,3.8,4.4
				c1.6,1.6,3.8,3.4,3.8,8.6c0,5.2,0,24.2,0,24.2H425.3z M445.7,461.7c0,0,0-19,0-24.2c0-5.2,2.1-7,3.8-8.6c2.7-2.6,3.8-4.4,3.8-4.4
				s1,1.8,3.8,4.4c1.6,1.6,3.8,3.4,3.8,8.6c0,5.2,0,24.2,0,24.2H445.7z M1140.6,781.4c11.7,0,21.2,9.5,21.2,21.2v34h-42.4v-34
				C1119.4,790.9,1128.9,781.4,1140.6,781.4z M1140.6,890.7c11.7,0,21.2,9.5,21.2,21.2v55.4h-42.4v-55.4
				C1119.4,900.2,1128.9,890.7,1140.6,890.7z M1460.9,776.5c0-33.9,7.8-38.8,13-43.2c5.3-4.4,10.4-11,10.4-11s5.1,6.7,10.4,11
				c5.3,4.4,13,9.3,13,43.2c0,33.9,0,55,0,55h-23.5h-23.5C1460.9,831.5,1460.9,810.4,1460.9,776.5z M1460.9,912.2
				c0-33.9,7.8-38.8,13-43.2c5.3-4.4,10.4-11.1,10.4-11.1s5.1,6.7,10.4,11.1c5.3,4.4,13,9.3,13,43.2c0,34,0,55,0,55h-46.9
				C1460.9,967.2,1460.9,946.1,1460.9,912.2z M1325.8,776.5c0-33.9,12.9-38.8,21.6-43.2c8.8-4.4,17.2-11,17.2-11s8.5,6.7,17.2,11
				c8.7,4.4,21.6,9.3,21.6,43.2c0,33.9,0,55,0,55h-26.9v-30.8c0-6.6-5.3-11.9-11.9-11.9s-11.9,5.3-11.9,11.9v30.8h-26.9
				C1325.8,831.5,1325.8,810.4,1325.8,776.5z M1325.8,912.2c0-33.9,12.9-38.8,21.6-43.2c8.8-4.4,17.2-11.1,17.2-11.1
				s8.5,6.7,17.2,11.1c8.7,4.4,21.6,9.3,21.6,43.2c0,34,0,55,0,55h-26.9v-31.2c0-6.6-5.3-11.9-11.9-11.9s-11.9,5.4-11.9,11.9v31.2
				h-26.9C1325.8,967.2,1325.8,946.1,1325.8,912.2z M1037.9,672.1h205.4v295.1H1227c0,0,0-119.1,0-159.5c0-77.6-68.3-70-86.4-101.8
				c-18.2,31.8-86.4,24.2-86.4,101.8c0,40.4,0,159.5,0,159.5h-16.3V672.1z M877.7,776.5c0-33.9,12.9-38.8,21.6-43.2
				c8.8-4.4,17.2-11,17.2-11s8.5,6.7,17.2,11c8.7,4.4,21.6,9.3,21.6,43.2c0,33.9,0,55,0,55h-26.9v-30.8c0-6.6-5.4-11.9-11.9-11.9
				c-6.6,0-11.9,5.3-11.9,11.9v30.8h-26.9C877.7,831.5,877.7,810.4,877.7,776.5z M877.7,912.2c0-33.9,12.9-38.8,21.6-43.2
				c8.8-4.4,17.2-11.1,17.2-11.1s8.5,6.7,17.2,11.1c8.7,4.4,21.6,9.3,21.6,43.2c0,34,0,55,0,55h-26.9v-31.2
				c0-6.6-5.4-11.9-11.9-11.9c-6.6,0-11.9,5.4-11.9,11.9v31.2h-26.9C877.7,967.2,877.7,946.1,877.7,912.2z M773.3,776.5
				c0-33.9,7.8-38.8,13.1-43.2c5.3-4.4,10.4-11,10.4-11s5.1,6.7,10.4,11c5.3,4.4,13.1,9.3,13.1,43.2c0,33.9,0,55,0,55h-23.5h-23.5
				C773.3,831.5,773.3,810.4,773.3,776.5z M773.3,912.2c0-33.9,7.8-38.8,13.1-43.2c5.3-4.4,10.4-11.1,10.4-11.1s5.1,6.7,10.4,11.1
				c5.3,4.4,13.1,9.3,13.1,43.2c0,34,0,55,0,55h-46.9C773.3,967.2,773.3,946.1,773.3,912.2z"/>
			<path fill="#F89A30" d="M1004.5,544.8c0,0,8.9-12.7,136.1-12.7c127.2,0,136,12.7,136,12.7s51.3-45.3,10-112
				c-40.1-64.7-107-88.6-142.9-129.6c-0.1,0-0.2,0-0.3,0.1c5-1.3,8.8-5.9,8.8-11.3c0-4.9-3.1-9.1-7.4-10.9c2.8-1.5,4.8-4.5,4.8-8
				c0-5-4.1-9-9.1-9.1c0,0,0,0,0,0c1.2,0,2.4,0.3,3.5,0.7v-11.6c-1.1,0.5-2.3,0.7-3.5,0.7c0,0,0,0,0,0c5,0,9.1-4.1,9.1-9.1
				c0-5-4.1-9.1-9.1-9.1c0,0,0,0,0,0c1.2,0,2.4,0.2,3.5,0.7v-23.4c0,0-0.4-3.6-3.6-3.6c-3.3,0-3.5,3.6-3.5,3.6v23.4
				c-3.2,1.4-5.5,4.6-5.5,8.3c0,3.8,2.3,7,5.5,8.4v11.7c-3.2,1.4-5.5,4.6-5.5,8.3c0,3.5,2,6.4,4.8,8c-4.3,1.7-7.4,5.9-7.4,10.9
				c0,5.3,3.6,9.8,8.5,11.2c-35.9,41-102.8,64.9-142.9,129.6C953.2,499.5,1004.5,544.8,1004.5,544.8z M1140.6,303.7c0,0,0.1,0,0.1,0
				C1140.7,303.7,1140.7,303.7,1140.6,303.7C1140.6,303.7,1140.6,303.7,1140.6,303.7z M1142.1,303.6c0.2,0,0.3,0,0.5-0.1
				C1142.4,303.5,1142.2,303.5,1142.1,303.6z M1139,303.5L1139,303.5L1139,303.5z"/>
		</g>
	</g>
</g>
</svg>
