<svg xmlns="http://www.w3.org/2000/svg" width="34" height="35" viewBox="0 0 34 35">
  <g id="Group_1935" data-name="Group 1935" transform="translate(-32.325 -260)">
    <g id="Group_1728" data-name="Group 1728" transform="translate(14.325 -251)">
      <rect id="Rectangle_294" data-name="Rectangle 294" width="34" height="35" rx="6" transform="translate(18 511)" fill="#fae1ce"/>
      <g id="password" transform="translate(25 519.004)">
        <g id="Group_1585" data-name="Group 1585" transform="translate(0 11.39)">
          <g id="Group_1584" data-name="Group 1584">
            <path id="Path_3272" data-name="Path 3272" d="M16.294,327H3.017a3.017,3.017,0,1,0,0,6.035H16.294a3.017,3.017,0,1,0,0-6.035ZM4,330.96a.943.943,0,1,1,.943-.943A.943.943,0,0,1,4,330.96Zm3.772,0a.943.943,0,1,1,.943-.943A.943.943,0,0,1,7.77,330.96Zm3.772,0a.943.943,0,1,1,.943-.943A.943.943,0,0,1,11.541,330.96Zm3.772,0a.943.943,0,1,1,.943-.943A.943.943,0,0,1,15.313,330.96Z" transform="translate(0 -327)" fill="#fe9446"/>
          </g>
        </g>
        <g id="Group_1587" data-name="Group 1587" transform="translate(5.507 0)">
          <g id="Group_1586" data-name="Group 1586">
            <path id="Path_3273" data-name="Path 3273" d="M153.732,28.847h-.754V27.829a2.829,2.829,0,0,0-5.658,0v1.018h-.754a.566.566,0,0,0-.566.566V33.9a.566.566,0,0,0,.566.566h7.166a.566.566,0,0,0,.566-.566V29.413A.566.566,0,0,0,153.732,28.847Zm-3.017,2.984v.221a.566.566,0,1,1-1.132,0v-.221a.565.565,0,0,1,.189-1.1h.754a.565.565,0,0,1,.189,1.1Zm1.132-2.984h-3.394V27.829a1.7,1.7,0,1,1,3.394,0Z" transform="translate(-146 -25)" fill="#fe9446"/>
          </g>
        </g>
      </g>
    </g>
  </g>
</svg>
