<svg width="20" height="16" viewBox="0 0 20 16" fill="#4F45A8" xmlns="http://www.w3.org/2000/svg">
    <path d="M3.35355 0.646447C3.15829 0.451184 2.84171 0.451184 2.64645 0.646447C2.45118 0.841709 2.45118 1.15829 2.64645 1.35355L3.35355 0.646447ZM16.6464 15.3536C16.8417 15.5488 17.1583 15.5488 17.3536 15.3536C17.5488 15.1583 17.5488 14.8417 17.3536 14.6464L16.6464 15.3536ZM18.7522 7.18207L19.2227 7.01299L18.7522 7.18207ZM18.7522 8.81793L19.2227 8.98701L18.7522 8.81793ZM1.71836 7.35115C2.35732 5.57297 4.41952 1.5 10 1.5V0.5C3.77648 0.5 1.46585 5.09672 0.777273 7.01299L1.71836 7.35115ZM10 1.5C15.5805 1.5 17.6427 5.57297 18.2816 7.35115L19.2227 7.01299C18.5341 5.09672 16.2235 0.5 10 0.5V1.5ZM0.777273 8.98701C1.46585 10.9033 3.77648 15.5 10 15.5V14.5C4.41952 14.5 2.35732 10.427 1.71836 8.64885L0.777273 8.98701ZM10 15.5C16.2235 15.5 18.5341 10.9033 19.2227 8.98701L18.2816 8.64885C17.6427 10.427 15.5805 14.5 10 14.5V15.5ZM10 11.5C11.933 11.5 13.5 9.933 13.5 8H12.5C12.5 9.38071 11.3807 10.5 10 10.5V11.5ZM13.5 8C13.5 6.067 11.933 4.5 10 4.5V5.5C11.3807 5.5 12.5 6.61929 12.5 8H13.5ZM10 4.5C8.067 4.5 6.5 6.067 6.5 8H7.5C7.5 6.61929 8.61929 5.5 10 5.5V4.5ZM6.5 8C6.5 9.933 8.067 11.5 10 11.5V10.5C8.61929 10.5 7.5 9.38071 7.5 8H6.5ZM2.64645 1.35355L16.6464 15.3536L17.3536 14.6464L3.35355 0.646447L2.64645 1.35355ZM18.2816 7.35115C18.4334 7.77358 18.4334 8.22642 18.2816 8.64885L19.2227 8.98701C19.4531 8.34598 19.4531 7.65402 19.2227 7.01299L18.2816 7.35115ZM0.777273 7.01299C0.546929 7.65402 0.546929 8.34598 0.777273 8.98701L1.71836 8.64885C1.56657 8.22642 1.56657 7.77358 1.71836 7.35115L0.777273 7.01299Z"
     fill="#becec9" opacity="0.8"/>
</svg>