<svg xmlns="http://www.w3.org/2000/svg" width="121" height="117" viewBox="0 0 121 117">
  <g id="Group_1930" data-name="Group 1930" transform="translate(-147 -261)">
    <g id="Group_1602" data-name="Group 1602" transform="translate(-22 -97)">
      <g id="Group_1579" data-name="Group 1579" transform="translate(169 358)">
        <ellipse id="Ellipse_66" data-name="Ellipse 66" cx="60.5" cy="58.5" rx="60.5" ry="58.5" fill="#003627"/>
        <g id="sand-clock" transform="translate(44.154 29.48)">
          <g id="Group_1578" data-name="Group 1578">
            <path id="Path_3254" data-name="Path 3254" d="M136.677,0H110.268a3.6,3.6,0,0,0,0,7.2h26.409a3.6,3.6,0,1,0,0-7.2Z" transform="translate(-106.667)" fill="#455a64"/>
            <path id="Path_3255" data-name="Path 3255" d="M155.61,90.684H129.2a1.2,1.2,0,0,1-1.2-1.2V79.436a10.8,10.8,0,0,1,3.69-8.132l4.257-3.726a1.2,1.2,0,0,0,.111-1.694,1.213,1.213,0,0,0-.111-.111l-4.257-3.726A10.8,10.8,0,0,1,128,53.915V43.867a1.2,1.2,0,0,1,1.2-1.2H155.61a1.2,1.2,0,0,1,1.2,1.2V53.915a10.8,10.8,0,0,1-3.69,8.132l-4.257,3.726a1.2,1.2,0,0,0-.111,1.694,1.216,1.216,0,0,0,.111.111L153.12,71.3a10.8,10.8,0,0,1,3.69,8.132V89.483A1.2,1.2,0,0,1,155.61,90.684Z" transform="translate(-125.599 -37.865)" fill="#455a64"/>
          </g>
          <path id="Path_3256" data-name="Path 3256" d="M149.333,107.215h24.008V98.368a8.4,8.4,0,0,0-2.881-6.324L166.2,88.318a3.6,3.6,0,0,1,0-5.421l4.257-3.726a8.4,8.4,0,0,0,2.881-6.324V64H149.333v8.847a8.4,8.4,0,0,0,2.881,6.324l4.257,3.726a3.6,3.6,0,0,1,0,5.419l-4.257,3.729a8.4,8.4,0,0,0-2.881,6.324Z" transform="translate(-144.531 -56.797)" fill="#eceff1"/>
          <path id="Path_3257" data-name="Path 3257" d="M206.3,171.409a1.2,1.2,0,0,0-1.109-.742h-12a1.2,1.2,0,0,0-.85,2.05l6,6a1.2,1.2,0,0,0,1.7,0l6-6A1.2,1.2,0,0,0,206.3,171.409Z" transform="translate(-182.38 -151.46)" fill="#ff8327"/>
          <path id="Path_3258" data-name="Path 3258" d="M136.677,448H110.268a3.6,3.6,0,0,0,0,7.2h26.409a3.6,3.6,0,1,0,0-7.2Z" transform="translate(-106.667 -397.582)" fill="#455a64"/>
          <path id="Path_3259" data-name="Path 3259" d="M162.144,322.6c-.474-.429.453-.452,0,0H161.08l-11.747,22.445v1.7h24.008V344.03Z" transform="translate(-144.531 -296.326)" fill="#ff8327"/>
        </g>
      </g>
    </g>
  </g>
</svg>
